<svg width="197" height="171" viewBox="0 0 197 171" fill="none" xmlns="http://www.w3.org/2000/svg">
<path d="M39.9229 62.1806C41.0134 54.0468 48.4913 48.3366 56.625 49.4267L183.421 66.4237L183.8 66.4794C191.731 67.7478 197.247 75.1191 196.174 83.1259L186.175 157.722L186.118 158.1C184.87 165.906 177.711 171.372 169.853 170.52L169.473 170.475L42.6768 153.477L42.2979 153.422C34.4924 152.173 29.0265 145.015 29.878 137.156L29.9239 136.775L39.9229 62.1806ZM56.3292 51.6356C49.4155 50.709 43.0588 55.5628 42.1319 62.4765L32.1319 137.072C31.2056 143.986 36.0595 150.34 42.9727 151.267L169.769 168.266C176.682 169.192 183.039 164.339 183.966 157.426L193.965 82.83C194.891 75.9164 190.038 69.5599 183.125 68.6327L56.3292 51.6356ZM48.8018 131.629L70.7198 134.972C72.2407 135.204 73.2868 136.625 73.0547 138.146C72.8226 139.667 71.4008 140.712 69.8799 140.48L47.962 137.137C46.4409 136.905 45.3962 135.484 45.628 133.963C45.86 132.442 47.2807 131.397 48.8018 131.629ZM90.752 126.052L120.843 130.324C122.366 130.541 123.426 131.951 123.21 133.475C122.993 134.998 121.583 136.057 120.06 135.841L89.9688 131.569C88.4454 131.353 87.3855 129.942 87.6016 128.419C87.8179 126.895 89.2285 125.835 90.752 126.052ZM50.0733 120.107L80.1641 124.38C81.6876 124.596 82.7476 126.007 82.5313 127.53C82.3147 129.053 80.9042 130.113 79.3809 129.896L49.2901 125.625C47.7667 125.409 46.7069 123.998 46.9229 122.475C47.1392 120.951 48.5498 119.891 50.0733 120.107ZM137.122 0.0741112C139.626 0.0381961 142.371 0.335036 144.185 1.54384C145.111 2.16134 145.918 3.10872 146.614 4.16688C147.316 5.23432 147.94 6.46976 148.479 7.72157C149.554 10.2239 150.323 12.8711 150.704 14.5565L150.705 14.5604L151.283 17.161L156.009 38.4286L160.735 59.6962C160.847 60.1968 160.531 60.6933 160.03 60.8046C159.53 60.9156 159.033 60.5999 158.922 60.0995L156.573 49.5292C155.36 46.1038 153.065 44.2193 150.421 43.2587C147.742 42.2854 144.682 42.2562 142.034 42.6434L138.383 43.4979L104.206 51.4979C103.707 51.6146 103.207 51.3047 103.09 50.8056C102.973 50.3063 103.283 49.8064 103.782 49.6893L137.927 41.6962C138.985 41.347 140.271 41.0294 141.68 40.8183L153.996 37.9345L150.127 20.5224L5.13286 55.9862C6.18551 60.8462 7.36592 66.2606 8.59185 71.8163L21.6954 68.6737L35.7198 65.3104C36.2185 65.1909 36.7193 65.4982 36.8389 65.997C36.9584 66.4957 36.6511 66.9975 36.1524 67.1171L22.1856 70.4657C11.8289 74.3523 10.5994 80.3636 11.0518 82.8876C11.0802 83.0142 11.1094 83.1409 11.1377 83.2675C13.0472 91.7808 14.9228 99.9635 16.459 106.335C17.2272 109.521 17.9095 112.25 18.4678 114.339C19.0339 116.456 19.455 117.846 19.6993 118.41C20.5416 120.354 22.0962 121.508 23.7657 122.164C25.4498 122.825 27.1915 122.952 28.2471 122.869C28.7584 122.829 29.2057 123.21 29.2461 123.722C29.2863 124.233 28.9048 124.68 28.3936 124.721C27.0964 124.823 25.0675 124.671 23.087 123.893C21.0914 123.11 19.0846 121.663 17.9952 119.149C17.6853 118.434 17.2301 116.899 16.6739 114.818C16.1098 112.708 15.423 109.962 14.6534 106.77C13.1137 100.385 11.2354 92.1915 9.32525 83.6747C9.32469 83.6722 9.32386 83.6694 9.32329 83.6669C9.28949 83.5375 9.25943 83.403 9.23345 83.2645C8.48093 79.9071 7.72399 76.5024 6.9815 73.1415C5.44137 66.17 3.96313 59.3841 2.71294 53.5927C2.32048 51.7746 1.9498 50.0543 1.60747 48.4569C0.743696 46.214 -0.0117159 42.7031 0.5313 39.3319C1.09075 35.8599 3.04439 32.513 7.58989 30.9706C11.8018 29.5416 33.1937 24.2188 58.1319 18.164C83.1062 12.1003 111.723 5.28258 130.453 0.855361L130.463 0.853408C132.031 0.501434 134.566 0.110808 137.122 0.0741112ZM142.817 89.3524C143.133 87.0008 145.237 85.3279 147.575 85.5214L147.803 85.5458L174.811 89.1659L175.035 89.202C177.342 89.631 178.931 91.7995 178.616 94.1513L175.972 113.877L175.936 114.101C175.52 116.334 173.477 117.894 171.214 117.707L170.987 117.683L143.981 114.062L143.754 114.026C141.522 113.611 139.961 111.567 140.148 109.304L140.173 109.078L142.817 89.3524ZM147.26 89.5956C147.069 89.5701 146.893 89.7047 146.867 89.8954L144.223 109.621C144.198 109.811 144.332 109.987 144.523 110.013L171.53 113.633C171.721 113.658 171.896 113.524 171.922 113.334L174.566 93.6093C174.592 93.4186 174.458 93.2416 174.268 93.2157L147.26 89.5956ZM137.148 1.93153C134.742 1.9661 132.336 2.33685 130.87 2.66591L130.869 2.66493C112.141 7.09167 83.5349 13.9074 58.5704 19.9686C33.5649 26.0398 12.2961 31.3361 8.18657 32.7304C4.41171 34.0114 2.83577 36.7014 2.36431 39.6278C1.91313 42.4293 2.48958 45.4243 3.2188 47.4628L3.36724 47.8573L3.39458 47.9276L3.41021 48.0018C3.58469 48.8161 3.76677 49.6626 3.95513 50.538L148.918 15.0819L148.892 14.9628V14.9618C148.53 13.3655 147.794 10.8329 146.773 8.45595C146.261 7.26695 145.686 6.13553 145.063 5.18739C144.433 4.23025 143.787 3.51229 143.153 3.08974C141.846 2.21832 139.607 1.89625 137.148 1.93153Z" fill="url(#paint0_linear_2084_10)"/>
<defs>
<linearGradient id="paint0_linear_2084_10" x1="98.3277" y1="0.0712891" x2="98.3277" y2="170.608" gradientUnits="userSpaceOnUse">
<stop stop-color="#019FF6"/>
<stop offset="1" stop-color="#C400FF"/>
</linearGradient>
</defs>
</svg>
