<svg width="217" height="184" viewBox="0 0 217 184" fill="none" xmlns="http://www.w3.org/2000/svg">
<path d="M89.9707 0.62207L99.1406 17.6094C99.402 18.0677 99.6569 18.54 99.9053 19.0264L109.083 36.0273L109.646 36.1904L115.501 27.6572L129.673 7.00488L130.046 6.45996L130.684 6.63477L206.039 27.2764L207.275 27.6152L206.568 28.6846L186.695 58.7373L207.417 78.5928L216.26 87.0654L215.94 88.6064L199.875 94.5742L186.092 99.6914L187.075 151.012L186.482 151.896L104.038 183.854L103.318 183.833L44.998 157.341L28.585 149.886L28.04 149.027L28.2275 135.548C28.2226 135.281 28.227 135.026 28.2383 134.783L28.2939 130.773V95.7939H28.3955L0.257812 83.9912L0 82.4404L18.3887 66.0947L28.3369 57.251L8.37793 19.9053L7.80566 18.834L8.98926 18.5625L71.5498 4.16211C71.5727 4.15678 71.596 4.15174 71.6191 4.14648L88.9453 0.158203L89.6348 0L89.9707 0.62207ZM75.3838 114.882L74.3701 115.079L33.8662 98.0889V146.105C36.2579 149.557 40.0152 153.038 45.7656 155.65L101.629 181.025C101.532 180.742 101.478 180.439 101.478 180.123V89.002L75.3838 114.882ZM107.05 92.3066V180.123C107.05 180.327 107.026 180.526 106.984 180.718L185.205 150.398L184.247 100.374L135.236 118.451L134.229 118.206L114.392 96.4912C112.58 94.9131 111.098 93.8607 109.897 93.2041C108.681 92.539 107.81 92.3104 107.212 92.3027C107.156 92.302 107.102 92.3036 107.05 92.3066ZM73.585 148.508C73.8791 147.738 74.7409 147.352 75.5107 147.646L93.417 154.485C94.1865 154.78 94.5722 155.642 94.2783 156.412C93.9842 157.181 93.1221 157.567 92.3525 157.273L74.4463 150.434C73.6764 150.14 73.2909 149.278 73.585 148.508ZM106.369 84.9551L115.723 95.1943L135.179 116.491L184.828 98.1807L199.184 92.8486C204.598 90.2231 206.688 87.4358 207.283 85.1885C207.876 82.9486 207.047 81.0066 206.095 79.8984L185.649 60.3086L106.369 84.9551ZM47.9824 64.8926C33.242 59.9817 22.936 64.5874 19.6172 67.4883L2.33691 82.8486L30.0742 94.4844L33.1963 95.7939H33.8662V96.0742L74.5146 113.125L103.003 84.875L50.4512 65.79L47.9932 64.8965C47.9896 64.8953 47.986 64.8938 47.9824 64.8926ZM32.8486 57.4199L48.5615 63.127C48.5642 63.1278 48.5667 63.129 48.5693 63.1299C49.3959 63.4053 50.2349 63.7099 51.0859 64.0439L104.721 83.5225L182.669 59.29L135.239 45.542C133.357 45.1679 131.077 44.5462 128.743 43.6592L109.605 38.1123V73.8086C109.605 74.3215 109.19 74.7373 108.677 74.7373C108.164 74.7373 107.748 74.3215 107.748 73.8086V38.0762L32.8486 57.4199ZM117.032 28.708C115.565 30.8458 115.285 32.4583 115.569 33.7002C115.859 34.9635 116.786 36.0764 118.229 37.0938C119.667 38.1082 121.514 38.9531 123.45 39.7129C124.414 40.0909 125.386 40.4431 126.329 40.7832C127.252 41.1159 128.153 41.4388 128.971 41.7588L136.099 43.8223L136.09 43.8555L184.944 58.0166L204.312 28.7295L130.83 8.59961L117.032 28.708ZM97.166 17.9121C89.7207 5.51642 77.4935 4.72293 72.0527 5.95215L72.0352 5.95703L71.9658 5.97266L10.5879 20.0996L29.9131 56.2598L107.128 36.3164L98.2705 19.9082L97.5166 18.5117L97.166 17.9121Z" fill="url(#paint0_linear_2084_2)"/>
<defs>
<linearGradient id="paint0_linear_2084_2" x1="108.13" y1="0" x2="108.13" y2="183.854" gradientUnits="userSpaceOnUse">
<stop stop-color="#A200D6"/>
<stop offset="1" stop-color="#FF00C8"/>
</linearGradient>
</defs>
</svg>
