<svg width="158" height="178" viewBox="0 0 158 178" fill="none" xmlns="http://www.w3.org/2000/svg">
<path d="M82.9258 18.6191C84.4495 18.4859 87.3885 18.583 90.1397 19.5664C91.294 19.9791 92.4451 20.5581 93.4483 21.3662C94.9545 22.5794 99.5623 26.3469 104.709 30.5635L119.207 42.4541L119.24 42.4834C120.121 43.2677 121.346 44.9358 122.306 47.3994C123.078 49.3825 123.69 51.9085 123.813 54.96C123.854 55.9933 124.003 58.4249 124.233 61.9228C125.448 80.3478 128.913 127.891 130.772 153.109C130.978 154.838 131.179 157.56 131.116 160.174C131.085 161.487 130.985 162.801 130.778 163.959C130.577 165.089 130.252 166.195 129.693 167C128.987 168.019 127.824 168.723 126.543 169.238C125.242 169.762 123.682 170.143 122.023 170.437C118.71 171.022 114.802 171.287 111.4 171.546C105.912 171.964 97.3275 172.415 93.7051 172.59L93.7061 172.591L33.585 176.557H33.5772L21.1993 177.288L21.1983 177.287C19.5156 177.431 16.9737 177.341 14.7744 176.557C13.8924 176.242 13.0255 175.795 12.292 175.185C11.2085 174.864 10.3846 173.901 10.3018 172.708L3.20804 70.3877L0.906283 38.54C0.695596 37.2818 0.512069 35.281 0.626986 33.2236C0.741536 31.1735 1.15994 28.8675 2.31839 27.2266C3.13145 26.075 4.51129 25.3449 5.98245 24.8525C7.48262 24.3505 9.2527 24.0395 11.0498 23.8398C14.6377 23.4413 18.5575 23.4672 20.9991 23.416C24.9335 23.3333 63.8799 20.1877 82.9258 18.6191ZM88.7139 21.4473C86.5317 20.8018 84.2851 20.737 83.1202 20.8389L83.1153 20.8398C64.1415 22.4024 25.0711 25.559 21.0459 25.6436C19.5293 25.6754 17.5715 25.6796 15.502 25.7598C8.5753 27.0655 6.58405 32.3282 6.38968 35.7305L15.2725 163.84L15.3106 163.785C14.9545 167.228 19.1385 173.866 38.2032 174.018L93.5596 170.366H93.5694L93.5791 170.365C97.1884 170.191 105.766 169.739 111.231 169.323C114.682 169.06 118.456 168.803 121.635 168.241C123.222 167.961 124.612 167.612 125.711 167.17C126.83 166.72 127.519 166.224 127.862 165.729C128.143 165.324 128.4 164.602 128.585 163.567C128.765 162.56 128.858 161.37 128.888 160.12C128.948 157.622 128.753 154.995 128.556 153.348L128.553 153.322L128.551 153.296C126.697 128.139 123.239 80.7108 122.017 62.1865C119.7 53.8556 112.578 51.0016 109.267 50.5986C106.578 50.8114 103.786 50.9147 101.207 50.7959C97.2688 50.6144 94.588 48.9905 92.8711 46.9805C91.1838 45.0049 90.4612 42.6982 90.3135 41.124L90.3116 41.1103L88.7139 21.4473ZM101.491 104.562C102.596 103.348 104.475 103.26 105.689 104.364C106.904 105.469 106.993 107.348 105.889 108.562L72.9541 144.777L71.0176 146.906L68.8272 145.04L48.3819 127.61C47.1329 126.546 46.9833 124.67 48.0479 123.421C49.1127 122.172 50.9882 122.022 52.2373 123.087L70.4922 138.648L101.491 104.562ZM51.4746 2.99218C52.8851 1.52742 55.0205 0.560341 57.9844 0.987301C63.2228 1.74199 104.899 8.95647 125.079 12.4687C126.482 12.6461 128.654 12.9716 130.666 13.3809C131.678 13.5868 132.667 13.8175 133.504 14.0654C134.299 14.301 135.092 14.5899 135.61 14.957C136.097 15.3017 136.787 16.0495 137.508 16.8896C138.264 17.7719 139.157 18.8808 140.077 20.0566C141.918 22.4101 143.894 25.0668 145.151 26.7959L145.163 26.8115L154.869 40.665C155.381 41.2671 156.114 42.2288 156.731 43.2686C157.335 44.2872 157.964 45.5959 157.964 46.7598C157.964 47.2723 157.867 48.0678 157.733 48.9502C157.596 49.8572 157.407 50.9314 157.198 52.04C156.781 54.2584 156.282 56.644 155.948 58.165L139.266 142.888L138.172 142.673L137.078 142.457L153.767 57.7109L153.769 57.7002L153.772 57.6885C154.101 56.1829 154.596 53.819 155.008 51.6279C155.214 50.532 155.398 49.4865 155.53 48.6162C155.666 47.7218 155.734 47.0823 155.734 46.7598C155.734 46.254 155.406 45.4051 154.814 44.4062C154.254 43.4628 153.575 42.5759 153.131 42.0596L153.095 42.0176L153.064 41.9717L143.349 28.1064C142.101 26.3914 140.142 23.7567 138.321 21.4297C137.41 20.2654 136.541 19.1864 135.815 18.3408C135.054 17.4533 134.543 16.9328 134.322 16.7764C134.134 16.6427 133.661 16.4375 132.87 16.2031C132.12 15.981 131.202 15.7648 130.222 15.5654C128.264 15.1671 126.132 14.8482 124.771 14.6768L124.744 14.6728L124.719 14.6689C104.515 11.1526 62.8617 3.94181 57.666 3.19336C55.414 2.86896 53.9942 3.58879 53.0801 4.53808C52.1168 5.53858 51.6475 6.87239 51.5244 7.77246L51.5166 7.83105L51.502 7.88867L49.9551 14.1514L47.791 13.6162L49.3282 7.39355C49.5146 6.1407 50.1411 4.37723 51.4746 2.99218ZM94.6651 87.418C95.6885 87.3501 96.5723 88.1243 96.6387 89.1475C96.7049 90.171 95.928 91.0568 94.9043 91.125L25.4063 95.7519C24.3826 95.8201 23.498 95.0458 23.4317 94.0225C23.3655 92.999 24.1424 92.1132 25.166 92.0449L94.6651 87.418ZM103.026 69.0068C104.051 68.9477 104.927 69.7299 104.984 70.7539C105.042 71.7778 104.258 72.6564 103.234 72.7158L25.4356 77.21C24.4116 77.2689 23.535 76.4866 23.4776 75.4629C23.4205 74.4389 24.2053 73.5601 25.2295 73.501L103.026 69.0068ZM76.8291 51.918C77.8527 51.8522 78.7337 52.6279 78.7979 53.6514C78.8619 54.675 78.0844 55.5588 77.0606 55.625L23.6807 59.0674C22.6569 59.1334 21.7741 58.3576 21.71 57.334C21.646 56.3104 22.4245 55.4264 23.4483 55.3603L76.8291 51.918ZM92.5323 40.916L92.5586 41.1436C92.717 42.3209 93.2973 44.0462 94.5664 45.5322C95.8906 47.0826 97.9992 48.4168 101.311 48.5693C103.804 48.6841 106.541 48.5829 109.209 48.3682C113.291 48.0396 117.168 47.4465 119.69 46.9766C118.968 45.4945 118.216 44.5623 117.772 44.1611C110.429 38.1334 95.0482 25.5166 92.0498 23.1016C91.7337 22.8469 91.3903 22.619 91.0284 22.4121L92.5323 40.916Z" fill="url(#paint0_linear_2084_18)"/>
<defs>
<linearGradient id="paint0_linear_2084_18" x1="65.1325" y1="51.8008" x2="46.007" y2="177.431" gradientUnits="userSpaceOnUse">
<stop stop-color="#A5D600"/>
<stop offset="1" stop-color="#0D7000"/>
</linearGradient>
</defs>
</svg>
