<svg
            width="32"
            height="32"
            viewBox="0 0 32 32"
            fill="none"
            xmlns="http://www.w3.org/2000/svg"
        >
            <path
                d="M13.9288 11.1431C13.1595 10.3738 11.9122 10.3737 11.143 11.1429C10.3738 11.9121 10.3739 13.1593 11.1432 13.9286L25.0715 27.8569C25.8408 28.6262 27.088 28.6263 27.8573 27.8571C28.6265 27.0879 28.6264 25.8406 27.857 25.0713L13.9288 11.1431Z"
                stroke="white"
                stroke-miterlimit="10"
            />
            <path
                d="M11.1487 11.1487C10.965 11.3323 10.8193 11.5503 10.7199 11.7903C10.6205 12.0302 10.5693 12.2874 10.5693 12.5471C10.5693 12.8068 10.6205 13.064 10.7199 13.3039C10.8193 13.5439 10.965 13.7619 11.1487 13.9455L13.953 16.7499L16.7499 13.953L13.9455 11.1487C13.7619 10.965 13.5439 10.8193 13.3039 10.7199C13.064 10.6205 12.8068 10.5693 12.5471 10.5693C12.2874 10.5693 12.0302 10.6205 11.7903 10.7199C11.5503 10.8193 11.3323 10.965 11.1487 11.1487Z"
                fill="white"
            />
            <path
                d="M3 12H6"
                stroke="white"
                stroke-miterlimit="10"
                stroke-linecap="round"
            />
            <path
                d="M5.63623 5.63599L7.75748 7.75724"
                stroke="white"
                stroke-miterlimit="10"
                stroke-linecap="round"
            />
            <path
                d="M12 3V6"
                stroke="white"
                stroke-miterlimit="10"
                stroke-linecap="round"
            />
            <path
                d="M18.3637 5.63599L16.2424 7.75724"
                stroke="white"
                stroke-miterlimit="10"
                stroke-linecap="round"
            />
            <path
                d="M7.75748 16.2427L5.63623 18.3639"
                stroke="white"
                stroke-miterlimit="10"
                stroke-linecap="round"
            />
        </svg>