 <svg
            width="32"
            height="32"
            viewBox="0 0 32 32"
            fill="none"
            xmlns="http://www.w3.org/2000/svg"
        >
            <path
                d="M3.59299 2.98621L26.6199 26.0131C27.0568 26.45 27.3022 27.0427 27.3022 27.6606C27.3022 28.2785 27.0568 28.8711 26.6199 29.3081V29.3081C26.1828 29.7449 25.5902 29.9902 24.9724 29.9902C24.3545 29.9902 23.7619 29.7449 23.3249 29.3081L17.6999 23.5862C17.3317 23.2124 17.1252 22.709 17.1249 22.1843V21.8387C17.1249 21.5738 17.0723 21.3115 16.9702 21.0671C16.8681 20.8227 16.7184 20.601 16.5299 20.415L15.8036 19.7443C15.5571 19.5168 15.2573 19.355 14.9318 19.2738C14.6063 19.1925 14.2656 19.1944 13.9411 19.2793V19.2793C13.4293 19.4129 12.8915 19.4103 12.3811 19.2718C11.8706 19.1334 11.4052 18.8638 11.0311 18.49L5.69174 13.15C2.52424 9.98246 1.35861 5.19933 3.59299 2.98621Z"
                stroke="white"
                stroke-linejoin="round"
            />
            <path
                d="M24.9998 2.00171L20.1716 6.82983C19.8001 7.20128 19.5054 7.64228 19.3043 8.12764C19.1032 8.613 18.9998 9.13322 18.9998 9.65858V10.5873C18.9998 10.7187 18.9739 10.8489 18.9236 10.9703C18.8733 11.0917 18.7996 11.2019 18.7066 11.2948L17.9998 12.0017"
                stroke="white"
                stroke-linecap="round"
                stroke-linejoin="round"
            />
            <path
                d="M20 14.0007L20.7069 13.2939C20.7998 13.2009 20.9101 13.1272 21.0315 13.0769C21.1529 13.0266 21.283 13.0007 21.4144 13.0007H22.3431C22.8685 13.0007 23.3887 12.8972 23.8741 12.6962C24.3594 12.4951 24.8004 12.2004 25.1719 11.8289L30 7.00073"
                stroke="white"
                stroke-linecap="round"
                stroke-linejoin="round"
            />
            <path
                d="M27.4998 4.50244L22.4998 9.50244"
                stroke="white"
                stroke-linecap="round"
                stroke-linejoin="round"
            />
            <path
                d="M12.5 23.0011L6.26745 29.2686C5.79863 29.7373 5.16286 30.0006 4.49995 30.0006C3.83704 30.0006 3.20127 29.7373 2.73245 29.2686V29.2686C2.26378 28.7998 2.00049 28.164 2.00049 27.5011C2.00049 26.8382 2.26378 26.2024 2.73245 25.7336L7.99995 20.5011"
                stroke="white"
                stroke-linecap="round"
                stroke-linejoin="round"
            />
        </svg>