    <svg
            width="32"
            height="32"
            viewBox="0 0 32 32"
            fill="none"
            xmlns="http://www.w3.org/2000/svg"
        >
            <path
                d="M5 13.2494V27.9994C5 28.2646 5.10536 28.519 5.29289 28.7065C5.48043 28.894 5.73478 28.9994 6 28.9994H12V20.4994C12 20.1016 12.158 19.72 12.4393 19.4387C12.7206 19.1574 13.1022 18.9994 13.5 18.9994H18.5C18.8978 18.9994 19.2794 19.1574 19.5607 19.4387C19.842 19.72 20 20.1016 20 20.4994V28.9994H26C26.2652 28.9994 26.5196 28.894 26.7071 28.7065C26.8946 28.519 27 28.2646 27 27.9994V13.2494"
                stroke="white"
                strokeLinecap="round"
                strokeLinejoin="round"
            />
            <path
                d="M30 16.0011L16.6806 3.25111C16.3681 2.92111 15.6375 2.91736 15.3194 3.25111L2 16.0011"
                stroke="white"
                strokeLinecap="round"
                strokeLinejoin="round"
            />
            <path
                d="M25 11.1873V3.99976H22V8.31226"
                stroke="white"
                strokeLinecap="round"
                strokeLinejoin="round"
            />
        </svg>