    <svg
            width="32"
            height="32"
            viewBox="0 0 32 32"
            fill="none"
            xmlns="http://www.w3.org/2000/svg"
        >
            <path
                d="M28 21.3357V10.6632C27.9996 10.3139 27.9077 9.97076 27.7334 9.66801C27.5592 9.36526 27.3087 9.11342 27.0069 8.93756L17.5069 3.40881C17.0492 3.14234 16.529 3.00195 15.9994 3.00195C15.4697 3.00195 14.9496 3.14234 14.4919 3.40881L4.99312 8.93756C4.69131 9.11342 4.44081 9.36526 4.26657 9.66801C4.09233 9.97076 4.00043 10.3139 4 10.6632V21.3357C4.00021 21.6852 4.09201 22.0286 4.26626 22.3316C4.44051 22.6346 4.69112 22.8866 4.99312 23.0626L14.4931 28.5913C14.951 28.8574 15.4711 28.9976 16.0006 28.9976C16.5302 28.9976 17.0503 28.8574 17.5081 28.5913L27.0081 23.0626C27.3099 22.8864 27.5603 22.6343 27.7343 22.3314C27.9083 22.0284 27.9999 21.6851 28 21.3357Z"
                stroke="white"
                strokeLinecap="round"
                strokeLinejoin="round"
            />
            <path
                d="M4.3125 9.62402L16 16.499L27.6875 9.62402"
                stroke="white"
                strokeLinecap="round"
                strokeLinejoin="round"
            />
            <path
                d="M16 28.999V16.499"
                stroke="white"
                strokeLinecap="round"
                strokeLinejoin="round"
            />
        </svg>