 <svg
            width="32"
            height="32"
            viewBox="0 0 32 32"
            fill="none"
            xmlns="http://www.w3.org/2000/svg"
        >
            <g clip-path="url(#clip0_2_8208)">
                <rect
                    x="5.83325"
                    y="11.1666"
                    width="20.3333"
                    height="20.3333"
                    stroke="white"
                />
                <path
                    d="M12 5.33337C12 4.80808 12.1035 4.28793 12.3045 3.80263C12.5055 3.31733 12.8001 2.87637 13.1716 2.50494C13.543 2.1335 13.984 1.83887 14.4693 1.63785C14.9546 1.43683 15.4747 1.33337 16 1.33337C16.5253 1.33337 17.0454 1.43683 17.5307 1.63785C18.016 1.83887 18.457 2.1335 18.8284 2.50494C19.1999 2.87637 19.4945 3.31733 19.6955 3.80263C19.8965 4.28794 20 4.80808 20 5.33337L20 11.3334L16 11.3334L12 11.3334L12 5.33337Z"
                    stroke="white"
                />
            </g>
            <defs>
                <clipPath id="clip0_2_8208">
                    <rect width="32" height="32" fill="white" />
                </clipPath>
            </defs>
        </svg>